<?xml version="1.0" encoding="utf-8"?>
<!-- Generator: Adobe Illustrator 26.0.2, SVG Export Plug-In . SVG Version: 6.00 Build 0)  -->
<svg version="1.1" id="Слой_1" xmlns="http://www.w3.org/2000/svg" xmlns:xlink="http://www.w3.org/1999/xlink" x="0px" y="0px"
	 viewBox="0 0 214.7 40" style="enable-background:new 0 0 214.7 40;" xml:space="preserve">
<style type="text/css">
	.st0{clip-path:url(#SVGID_00000160159838861477085960000006100392313135856060_);}
	.st1{fill:#7F7F7F;}
	.st2{clip-path:url(#SVGID_00000131327760235103221700000008965100952123506610_);}
	.st3{clip-path:url(#SVGID_00000023965141324774709160000005400583953012873650_);}
	.st4{fill-rule:evenodd;clip-rule:evenodd;fill:#7F7F7F;}
	.st5{fill-rule:evenodd;clip-rule:evenodd;fill:#AAAAAA;}
</style>
<g>
	<defs>
		<rect id="SVGID_1_" x="82.1" y="7.9" width="33.2" height="26.4"/>
	</defs>
	<clipPath id="SVGID_00000075129569615047735060000007673548537556096917_">
		<use xlink:href="#SVGID_1_"  style="overflow:visible;"/>
	</clipPath>
	<g style="clip-path:url(#SVGID_00000075129569615047735060000007673548537556096917_);">
		<path class="st1" d="M103.5,7.9c-6.6,0-11.8,5.3-11.8,11.7c0,6.5,5.3,11.7,11.8,11.7c6.5,0,11.8-5.3,11.8-11.7S110,7.9,103.5,7.9z
			 M103.5,23.9c-2.4,0-4.4-2-4.4-4.4s2-4.4,4.4-4.4c2.4,0,4.4,2,4.4,4.4C107.9,21.9,105.9,23.9,103.5,23.9z"/>
		<path class="st1" d="M91.7,11.3v17.1h-4.2l-5.4-17.1H91.7z"/>
	</g>
</g>
<g>
	<defs>
		<rect id="SVGID_00000046303344151716661220000014441044501370521745_" x="131.9" y="6.9" width="28.3" height="30.3"/>
	</defs>
	<clipPath id="SVGID_00000098182882751749901170000013456235470512519336_">
		<use xlink:href="#SVGID_00000046303344151716661220000014441044501370521745_"  style="overflow:visible;"/>
	</clipPath>
	<g style="clip-path:url(#SVGID_00000098182882751749901170000013456235470512519336_);">
		<path class="st1" d="M145.7,6.9c2.1,0,4.1,0.5,5.9,1.4c0.3,0.1,0.6,0.3,0.8,0.4l-1.2,1.1l-1.8-1.9l-3.2,2.8l-1.9-2l-5.8,5.2
			l3.7,4.1l-1.5,1.3l3.7,4.1l-1.5,1.3l5.3,5.9l3.1-2.9l2.7,3.1c-0.5,0.4-1.1,0.8-1.8,1.2c-1.9,1.1-4.2,1.7-6.6,1.7
			c-7.4,0-13.4-6-13.4-13.4C132.2,12.9,138.3,6.9,145.7,6.9z M143.2,19.5l3.2-2.9l2.9,3.2l-3.2,2.9L143.2,19.5z M145.5,25l3.2-2.9
			l2.9,3.2l-3.2,2.9L145.5,25z M140.9,14l3.2-2.9l2.9,3.2l-3.2,2.9L140.9,14z M146.8,12.5l2.4-2.1l2.2,2.4l-2.4,2.2L146.8,12.5z
			 M151,22.3l2.4-2.1l2.2,2.4l-2.4,2.2L151,22.3z M153.1,27.2l2.4-2.2l2.1,2.4l-2.4,2.2L153.1,27.2z M154.1,16.1l1.6-1.4l1.4,1.6
			l-1.6,1.4L154.1,16.1z M152.1,11.4l1.6-1.5l1.4,1.6l-1.6,1.4L152.1,11.4z M156.1,20.8l1.6-1.4l1.5,1.6l-1.6,1.4L156.1,20.8z
			 M149,17.3l2.4-2.1l2.2,2.4l-2.4,2.2L149,17.3z"/>
	</g>
</g>
<g>
	<defs>
		<rect id="SVGID_00000032628724287307335630000010866891679156234173_" x="176.8" y="4.9" width="30.3" height="31.2"/>
	</defs>
	<clipPath id="SVGID_00000115488244534397698770000012241224946783285126_">
		<use xlink:href="#SVGID_00000032628724287307335630000010866891679156234173_"  style="overflow:visible;"/>
	</clipPath>
	<g style="clip-path:url(#SVGID_00000115488244534397698770000012241224946783285126_);">
		<path class="st1" d="M201.4,25.8c0.1,0.6-0.1,0.9-0.3,0.9c-0.2,0-0.5-0.2-0.8-0.7c-0.3-0.5-0.4-1-0.3-1.3c0.1-0.2,0.3-0.3,0.6-0.2
			C201.2,24.7,201.4,25.4,201.4,25.8z M198.6,27.1c0.6,0.5,0.8,1.1,0.5,1.6c-0.2,0.2-0.5,0.4-0.8,0.4c-0.3,0-0.7-0.1-0.9-0.3
			c-0.6-0.5-0.7-1.3-0.4-1.7c0.1-0.2,0.4-0.3,0.6-0.3C197.9,26.7,198.3,26.9,198.6,27.1z M197.6,32.1c2.6,0,5.5,0.9,8.6,3.7
			c0.3,0.3,0.7-0.1,0.5-0.4c-3.1-3.9-6-4.7-8.8-5.3c-3.5-0.8-5.3-2.8-6.6-4.9c-0.3-0.4-0.4-0.4-0.4,0.2c0,0.7,0,1.6,0.2,2.5
			c-0.1,0-0.3,0-0.4,0c-5,0-9.1-4.1-9.1-9.1c0-5,4.1-9.1,9.1-9.1s9.1,4.1,9.1,9.1c0,0.4,0,0.7-0.1,1.1c-0.7-0.1-2-0.1-2.9-0.1
			c-0.3,0-0.3,0.2,0,0.2c3,0.5,5.1,2.4,5.5,5.8c0,0.1,0.1,0.1,0.2,0c1.2-2.1,1.9-4.5,1.9-7.1c0-7.6-6.1-13.7-13.7-13.7
			s-13.7,6.2-13.7,13.7s6.1,13.7,13.7,13.7C192.7,32.5,194.6,32.1,197.6,32.1z"/>
	</g>
</g>
<path class="st4" d="M14.8,12.2c0.5,0,1.9-0.1,2.5,2.1c0.4,1.5,1.1,4,2,7.4h0.4c1-3.6,1.6-6.1,2-7.4c0.6-2.2,2.1-2.1,2.8-2.1h4.7v16
	h-4.8v-9.4H24l-2.7,9.4h-3.6L15,18.7h-0.3v9.4H9.8v-16H14.8z M36,12.2v9.4h0.4l3.3-7.8c0.6-1.5,2-1.7,2-1.7h4.7v16h-4.9v-9.4H41
	l-3.2,7.8c-0.6,1.5-2,1.7-2,1.7h-4.7v-16H36z M63.3,19.8c-0.7,2.1-2.8,3.6-5.2,3.6h-5.2v4.8h-4.7v-8.4H63.3z"/>
<path class="st5" d="M58.3,12.2H48c0.2,3.6,3.1,6.6,6,6.6h9.6C64.2,15.8,62.2,12.2,58.3,12.2z"/>
</svg>
